<?xml version="1.0" encoding="utf-8"?>
<!-- Generator: Adobe Illustrator 25.2.3, SVG Export Plug-In . SVG Version: 6.00 Build 0)  -->
<svg width="16" height="16" version="1.1" id="Layer_1" xmlns="http://www.w3.org/2000/svg" xmlns:xlink="http://www.w3.org/1999/xlink" x="0px" y="0px"
	 viewBox="0 0 512 536.3" xml:space="preserve">
<g>
	<g>
		<path d="M216.3,2.9c-25.7,3.2-44.3,5.4-77.8,27.7c-3,2-4.4,5.8-3.6,9.2c0.9,3.5,3.9,6.1,7.6,6.4c70,5.8,107.5,36.9,118,47
			l-14.3,48c-2.9,9.6-1,17.8,5.3,22.7l17,13.2L36,474.7c-0.7,0.7-9.7,11.3-8.1,24.3c1.6,13.3,13.1,21.2,14.4,22l8.9,7
			c0.7,0.7,11.3,9.7,24.3,8.1c12.8-1.6,21-12.9,21.9-14.2l218.8-280.1c2.9-3.7,2.2-9.1-1.5-12c-3.7-2.9-9.1-2.2-12,1.5L83.6,511.8
			c-1.4,2-5.8,6.8-10.2,7.3c-4.5,0.6-9.7-2.9-11.3-4.3l-9.9-7.8c-2.2-1.5-6.8-5.5-7.3-10.2c-0.6-4.5,2.9-9.7,4.3-11.3l238.1-304.7
			c1.4-1.8,2-4,1.7-6.3c0.1-2.4-1.4-4.3-3.2-5.7L262,150.4c0-0.1-0.2-1.6,0.6-4.3l15.7-52.7c0.8-2.7,0.2-5.7-1.6-7.9
			c-1.5-1.8-34.3-40-107.6-53c17.7-8.7,30.8-10.3,49.3-12.6c46.2-5.7,95.2,39.9,95.7,40.4l97.5,76.2c-0.6,0.7-1,1.5-1.3,2.4l-9,25.4
			c-1.2,3.5-0.1,7.3,2.8,9.6l17.4,13.6c2.9,2.3,6.9,2.4,10,0.4l22.5-14.9c1.9-1.2,2.8-1.2,2.8-1.2l32.8,25.6l-63,80.7l-32.6-25.5
			c-0.2-0.2-0.4-1,0.4-3.2l9-25.4c1.2-3.4,0.1-7.3-2.8-9.6L383,200.8c-2.9-2.3-6.9-2.4-10-0.4l-22.5,14.9c-0.8,0.5-1.4,1.1-2,1.9
			L309.9,187c-3.7-2.9-9.1-2.2-12,1.5c-2.9,3.7-2.2,9.1,1.5,12l38.7,30.2c3.6,2.8,8.1,4,12.6,3.5c4-0.5,7.6-2.3,10.3-5.2l16.4-10.9
			l7.7,6l-7,19.6c-4.3,12.5,1.4,19.4,5.3,22.3l32.6,25.5c3.6,2.8,8.1,4,12.6,3.5s8.6-2.8,11.4-6.4l63-80.7c2.8-3.6,4.1-8,3.5-12.6
			l0,0c-0.6-4.5-2.8-8.6-6.4-11.4l-32.5-25.4c-3.9-3-12-7-23,0.2l-17.4,11.6l-7.7-6l6.6-18.5c4.7-7.3,3.1-17.2-3.9-22.6l-96.9-75.7
			C323.6,45.7,270.5-3.7,216.3,2.9z"/>
	</g>
</g>
</svg>
