<?xml version="1.0" encoding="utf-8"?>
<!-- Generator: Adobe Illustrator 25.2.3, SVG Export Plug-In . SVG Version: 6.00 Build 0)  -->
<svg width="16" height="16" version="1.1" id="Capa_1" xmlns="http://www.w3.org/2000/svg" xmlns:xlink="http://www.w3.org/1999/xlink" x="0px" y="0px"
	 viewBox="0 0 432.5 432.5" xml:space="preserve">
<style type="text/css">
	.st0{fill:#D4D4D4;}
</style>
<g id="XMLID_311_">
	<path id="XMLID_835_" class="st0" d="M322.7,106.6c-2.8-4.5-5.7-8.9-8.9-13.1c-25.8-34.4-60.5-53.3-97.6-53.3s-71.9,18.9-97.6,53.3
		c-3.1,4.2-6.1,8.6-8.9,13.1c20.1,32,60.3,53.9,106.5,53.9C262.5,160.5,302.7,138.6,322.7,106.6z"/>
	<path id="XMLID_1453_" class="st0" d="M417.5,201.8h-65.6c-0.8-12.6-2.6-24.9-5.4-36.7l51.6-51.6c5.9-5.9,5.9-15.4,0-21.2
		c-5.9-5.9-15.4-5.9-21.2,0l-26,26c-7.3,12.8-17.2,24.7-29.4,35c-24.6,21-56.2,33.7-90.2,36.6v202.4c31.4-4.4,60.4-22.5,82.6-52.3
		c3.9-5.2,7.5-10.7,10.9-16.4l52.1,52.1c2.9,2.9,6.8,4.4,10.6,4.4c3.8,0,7.7-1.5,10.6-4.4c5.9-5.9,5.9-15.4,0-21.2l-59.6-59.6
		c7.4-19.6,12-40.9,13.4-63.1h65.6c8.3,0,15-6.7,15-15C432.5,208.5,425.7,201.8,417.5,201.8z"/>
	<path id="XMLID_1457_" class="st0" d="M201.2,189.8c-34-2.9-65.6-15.6-90.2-36.6c-12.2-10.4-22-22.2-29.4-35l-26-26
		c-5.9-5.9-15.4-5.9-21.2,0c-5.9,5.9-5.9,15.4,0,21.2L86,165c-2.8,11.9-4.6,24.2-5.4,36.7H15c-8.3,0-15,6.7-15,15s6.7,15,15,15h65.6
		c1.4,22.1,6,43.5,13.4,63.1l-59.6,59.6c-5.9,5.9-5.9,15.4,0,21.2c5.9,5.9,15.4,5.9,21.2,0l52.1-52.1c3.3,5.7,7,11.2,10.9,16.4
		c22.3,29.7,51.2,47.9,82.6,52.3L201.2,189.8L201.2,189.8z"/>
</g>
</svg>
