<?xml version="1.0" encoding="utf-8"?>
<!-- Generator: Adobe Illustrator 25.4.1, SVG Export Plug-In . SVG Version: 6.00 Build 0)  -->
<svg width="16" height="16" version="1.1" id="Layer_1" xmlns="http://www.w3.org/2000/svg" xmlns:xlink="http://www.w3.org/1999/xlink" x="0px" y="0px"
	 viewBox="0 0 259.9 259.9" style="enable-background:new 0 0 259.9 259.9;" xml:space="preserve">
<style type="text/css">
	.st0{fill-rule:evenodd;clip-rule:evenodd;stroke:#D4D4D4;stroke-width:0.7087;stroke-linecap:round;}
	.st1{fill:none;stroke:#D4D4D4;stroke-width:9;stroke-miterlimit:10;}
</style>
<g id="svgGroup">
	<path vector-effect="non-scaling-stroke" class="st0" d="M23.8,107.9h-0.4c-0.2,5-0.4,9.6-0.7,13.9c-0.2,4.3-0.5,8.5-0.8,12.6
		c-0.3,4.1-0.5,8.3-0.8,12.5c-0.2,4.2-0.4,8.7-0.7,13.5c-0.4,0.1-0.9,0.3-1.5,0.4c-0.4,0.1-0.9,0.1-1.3,0.2c-0.2,0-0.5,0-0.7,0
		c-0.4,0-0.7,0-1.1-0.1c-0.8-0.1-1.4-0.3-1.8-0.7c-0.2,0-0.2,0-0.3-0.1c-0.3-0.3-0.6-0.8-0.7-1.2c-0.1-0.4-0.2-0.9-0.2-1.4
		c0-0.2,0-0.4,0-0.5c0-0.6,0-1.5,0.1-2.6c0-0.4,0-0.8,0.1-1.1c0-0.9,0.1-1.8,0.1-2.7c0-0.8,0.1-1.6,0.1-2.5c0.1-1,0.1-2,0.2-2.9
		c0.2-3.1,0.4-6.6,0.6-10.4s0.6-7.7,0.8-11.6c0.2-3.9,0.6-7.8,1-11.6s0.5-7.3,0.8-10.4c0.2-0.2,0.5-0.4,0.7-0.5
		c0.2-0.2,0.5-0.3,0.8-0.5c0.3-0.1,0.5-0.2,0.8-0.3c0.6-0.3,1.3-0.4,2-0.5c0.5-0.1,0.9-0.1,1.4-0.1c0.8,0,1.7,0.1,2.5,0.3
		c1.7,0.5,3.2,1.7,3.9,3.4c1.3,2.6,2.5,5.3,3.9,8.2c1.4,2.9,2.6,5.9,3.9,8.9c1.3,3,2.6,6,3.8,8.9c1.2,2.9,2.4,5.7,3.5,8.4h0.4
		c1.5-3.5,2.9-7,4.4-10.4c1.2-2.9,2.5-5.8,3.8-8.7c0.2-0.4,0.4-0.8,0.5-1.2c1.4-3.2,2.7-6.2,4-9s2.4-5.4,3.4-7.7
		c0.3-0.1,0.6-0.3,0.8-0.4c0.4-0.2,0.9-0.3,1.5-0.4c0.5-0.1,1-0.2,1.5-0.2c0.4,0,0.8-0.1,1.1-0.1c3.1,0,4.9,1.1,5.4,3.2
		c0.1,0.3,0.1,0.7,0.2,1c0.2,1.1,0.4,2.5,0.6,4.3c0,0.2,0.1,0.4,0.1,0.6c0.3,2.4,0.6,5.1,0.9,8.1c0,0.5,0.1,1,0.1,1.5
		c0.3,3.6,0.7,7.5,1,11.6c0.3,4.1,0.6,8.1,0.8,12c0.2,3.9,0.5,7.3,0.7,10.5c0,0.8,0.1,1.5,0.1,2.3c0.1,1.5,0.2,2.8,0.3,3.9
		c0,0.5,0.1,1,0.1,1.4c-1,0.7-2.2,1.1-3.4,1.2c-0.3,0-0.6,0-0.8,0c-0.5,0-1.1-0.1-1.6-0.2c-0.4-0.1-0.7-0.3-1.1-0.5
		c-0.8-0.5-1.2-1.4-1.3-2.8c-0.3-4.9-0.6-9.7-0.9-14.5c-0.3-4.8-0.5-9.4-0.8-13.7c-0.2-4.3-0.5-8.3-0.6-12c-0.1-1.3-0.1-2.6-0.2-3.9
		c-0.1-2-0.2-3.8-0.3-5.4h-0.4c-0.4,0.9-0.7,1.9-1.1,2.8c-0.4,1-0.8,2-1.3,3.1c-0.1,0.2-0.1,0.3-0.2,0.5c-0.5,1.2-1,2.3-1.5,3.5
		c-0.5,1.2-1.1,2.5-1.7,3.8c-0.1,0.2-0.2,0.4-0.3,0.6c-0.7,1.5-1.3,3-2,4.5c-0.7,1.6-1.4,3.3-2.2,5.1c-0.1,0.1-0.1,0.2-0.2,0.4
		c-1.6,3.7-3.4,7.8-5.4,12.3c-0.4,0.3-0.8,0.5-1.4,0.7c-0.2,0.1-0.3,0.1-0.5,0.2c-0.8,0.3-1.6,0.4-2.5,0.4c-1.1,0-2-0.2-2.9-0.5
		c-0.3-0.1-0.7-0.3-0.9-0.5c-0.4-0.3-0.6-0.6-0.8-1.1c-3.6-7.5-6.7-14.3-9.3-20.5c-0.6-1.5-1.2-3-1.9-4.5
		C26.5,114.6,25,110.9,23.8,107.9z M208.1,156v-52c0-0.5,0.1-0.9,0.2-1.4c0.2-0.7,0.5-1.3,1-1.8c0.8-0.8,1.9-1.2,3.2-1.2h33.2
		c0.1,0.2,0.3,0.5,0.4,0.8c0.1,0.2,0.1,0.3,0.2,0.5c0.2,0.6,0.3,1.2,0.3,1.9c0,0.9-0.2,1.6-0.5,2.2c-0.1,0.2-0.2,0.3-0.3,0.5
		c-0.5,0.7-1.3,1-2.3,1h-27.3v19.3h26.4c0.1,0.2,0.3,0.5,0.4,0.8c0.1,0.2,0.1,0.3,0.2,0.5c0.2,0.4,0.2,0.9,0.3,1.4
		c0,0.2,0,0.3,0,0.5c0,1.1-0.3,2-0.8,2.6c-0.4,0.5-0.9,0.8-1.5,0.9c-0.3,0.1-0.5,0.1-0.8,0.1h-24.2v21h30c0.1,0.1,0.2,0.3,0.2,0.4
		c0.1,0.2,0.1,0.3,0.2,0.5c0.1,0.1,0.1,0.3,0.2,0.4c0.1,0.3,0.2,0.6,0.2,0.8c0.1,0.3,0.1,0.7,0.1,1.1c0,1.1-0.3,2-0.8,2.6
		c-0.4,0.5-0.9,0.8-1.5,0.9c-0.3,0.1-0.5,0.1-0.8,0.1h-31.5c-0.5,0-0.9-0.1-1.4-0.2c-0.7-0.2-1.3-0.5-1.8-1
		C208.5,158.4,208.1,157.3,208.1,156z M185.2,157.8l-25.5-26.4v28.9c-0.1,0-0.3,0.1-0.4,0.1c-0.3,0.1-0.7,0.2-1.1,0.3l0,0
		c-0.7,0.2-1.4,0.3-2.2,0.2c-0.6,0-1.1,0-1.6-0.2c-1.8-0.4-2.8-1.6-2.8-3.5V99.8c0.1,0,0.2-0.1,0.3-0.1c0.2-0.1,0.5-0.2,0.9-0.3
		c0.1,0,0.2-0.1,0.3-0.1c0.5-0.1,1.1-0.2,1.6-0.2c0.2,0,0.4,0,0.7,0c0.6,0,1.1,0,1.6,0.2c1.8,0.4,2.8,1.6,2.8,3.5v24.9l27.5-28.5
		c1.7,0.1,3,0.5,3.9,1.3c0.3,0.3,0.6,0.7,0.8,1c0.3,0.5,0.5,1.1,0.5,1.8c0,0.9-0.2,1.7-0.7,2.4c-0.4,0.6-0.8,1.2-1.4,1.8
		c-0.2,0.2-0.4,0.4-0.6,0.6l-21.6,21.2c2.5,2.5,5,4.9,7.5,7.4c2.3,2.3,4.4,4.4,6.3,6.4c0.6,0.7,1.3,1.3,1.9,2
		c4.4,4.6,8.2,8.4,11.4,11.2c0,0.5-0.1,1-0.3,1.5c-0.2,0.6-0.4,1.1-0.7,1.5c-0.1,0.2-0.2,0.3-0.4,0.5c-0.8,0.8-1.7,1.2-2.9,1.2
		c-1.1,0-2.1-0.3-3.1-1c-0.5-0.4-1-0.8-1.5-1.2C186,158.6,185.6,158.2,185.2,157.8z M130.7,157.5l-4.5-13.3H99.4
		c-0.5,1.3-1,2.8-1.5,4.4c-0.5,1.6-1,3.1-1.5,4.6s-1,2.9-1.5,4.2c-0.1,0.3-0.2,0.6-0.3,0.9c-0.3,0.8-0.5,1.6-0.7,2.2v0.1
		c-0.5,0.2-1.1,0.4-1.6,0.5c-0.5,0.1-1,0.1-1.6,0.1h-0.1c-0.7,0-1.3-0.1-1.9-0.4c-0.3-0.1-0.6-0.3-0.9-0.5c-0.6-0.4-1-1-1.1-1.7
		c-0.1-0.3-0.1-0.7-0.1-1.1c0-0.5,0.1-0.9,0.2-1.4c0-0.2,0.1-0.3,0.1-0.5c0.2-0.6,0.4-1.3,0.7-2.1c1-2.8,2.3-6.4,3.8-10.8
		c1.6-4.4,3.3-9.1,5.1-14c1.8-4.9,3.7-10,5.6-15c1.9-5,3.6-9.6,5.2-13.6c0.4-0.2,1.1-0.4,1.9-0.7c0.2,0,0.3-0.1,0.5-0.1
		c1-0.1,2.1-0.2,3.2-0.2c1.3,0,2.6,0.2,3.8,0.6c0.3,0.1,0.7,0.3,1,0.4c0.7,0.4,1.1,0.9,1.3,1.6c0.8,1.9,1.6,3.9,2.3,5.8
		c0.9,2.3,1.8,4.8,2.8,7.4c1.8,5,3.7,10,5.6,15.2c1.9,5.2,3.7,10.3,5.3,15.4c0.8,2.4,1.6,4.8,2.4,7.1c0.8,2.3,1.5,4.5,2.2,6.5
		c-0.5,0.6-1.2,1.1-1.9,1.5c-0.7,0.4-1.6,0.5-2.5,0.5c-0.4,0-0.7,0-1.1-0.1c-0.4-0.1-0.7-0.2-1-0.3c-0.3-0.1-0.5-0.3-0.8-0.5
		s-0.5-0.5-0.7-0.8C131.3,159,131,158.4,130.7,157.5L130.7,157.5z M113.2,105.9h-0.4c-0.6,1.7-1.3,3.6-2.1,5.8
		c-0.1,0.4-0.3,0.7-0.4,1.1c-0.7,2-1.4,4-2.2,6c-0.2,0.7-0.5,1.4-0.7,2.1c-1,2.8-2,5.6-3,8.5c-1,2.9-1.9,5.6-2.8,8.2h22.5
		c-1-3-2-6-3.1-9.1c-1.1-3.1-2.1-6-3-8.8c-1-2.8-1.9-5.4-2.7-7.8c-0.3-0.8-0.6-1.7-0.9-2.5c-0.2-0.7-0.4-1.3-0.6-1.9
		C113.6,107,113.4,106.5,113.2,105.9z"/>
</g>
<path class="st1" d="M224.1,4.5H35.8c-17.3,0-31.3,14-31.3,31.3v188.3c0,17.3,14,31.3,31.3,31.3h188.3c17.3,0,31.3-14,31.3-31.3
	V35.8C255.4,18.5,241.4,4.5,224.1,4.5z"/>
</svg>
