<?xml version="1.0" encoding="utf-8"?>
<!-- Generator: Adobe Illustrator 25.2.3, SVG Export Plug-In . SVG Version: 6.00 Build 0)  -->
<svg width="16" height="16" version="1.1" id="Camada_1" xmlns="http://www.w3.org/2000/svg" xmlns:xlink="http://www.w3.org/1999/xlink" x="0px" y="0px"
	 viewBox="0 0 14.2 12.3" xml:space="preserve">
<style type="text/css">
	.st0{fill:#D4D4D4;}
</style>
<path class="st0" d="M7.1,8.1h4v1h-4V8.1z M4.1,9.1l3-3l-3-3L3.3,3.9l2.2,2.3L3.3,8.4L4.1,9.1z M14.1,1.1v10c0,0.6-0.4,1-1,1h-12
	c-0.5,0-1-0.4-1-1v-10c0-0.5,0.4-1,1-1h12C13.6,0.1,14.1,0.6,14.1,1.1z M13.1,1.1h-12v10h12V1.1z"/>
</svg>
